<svg version="1.1" xmlns="http://www.w3.org/2000/svg" xmlns:xlink="http://www.w3.org/1999/xlink" width="445.62451171875" height="324"><defs/><g><text fill="#eeeeee" stroke="none" font-family="Arial" font-size="24px" font-style="normal" font-weight="normal" text-decoration="none" x="0" y="0">UNREGISTERED</text><text fill="#eeeeee" stroke="none" font-family="Arial" font-size="24px" font-style="normal" font-weight="normal" text-decoration="none" x="0" y="30">UNREGISTERED</text><text fill="#eeeeee" stroke="none" font-family="Arial" font-size="24px" font-style="normal" font-weight="normal" text-decoration="none" x="0" y="60">UNREGISTERED</text><text fill="#eeeeee" stroke="none" font-family="Arial" font-size="24px" font-style="normal" font-weight="normal" text-decoration="none" x="0" y="90">UNREGISTERED</text><text fill="#eeeeee" stroke="none" font-family="Arial" font-size="24px" font-style="normal" font-weight="normal" text-decoration="none" x="0" y="120">UNREGISTERED</text><text fill="#eeeeee" stroke="none" font-family="Arial" font-size="24px" font-style="normal" font-weight="normal" text-decoration="none" x="0" y="150">UNREGISTERED</text><text fill="#eeeeee" stroke="none" font-family="Arial" font-size="24px" font-style="normal" font-weight="normal" text-decoration="none" x="0" y="180">UNREGISTERED</text><text fill="#eeeeee" stroke="none" font-family="Arial" font-size="24px" font-style="normal" font-weight="normal" text-decoration="none" x="0" y="210">UNREGISTERED</text><text fill="#eeeeee" stroke="none" font-family="Arial" font-size="24px" font-style="normal" font-weight="normal" text-decoration="none" x="0" y="240">UNREGISTERED</text><text fill="#eeeeee" stroke="none" font-family="Arial" font-size="24px" font-style="normal" font-weight="normal" text-decoration="none" x="0" y="270">UNREGISTERED</text><text fill="#eeeeee" stroke="none" font-family="Arial" font-size="24px" font-style="normal" font-weight="normal" text-decoration="none" x="0" y="300">UNREGISTERED</text><text fill="#eeeeee" stroke="none" font-family="Arial" font-size="24px" font-style="normal" font-weight="normal" text-decoration="none" x="200" y="0">UNREGISTERED</text><text fill="#eeeeee" stroke="none" font-family="Arial" font-size="24px" font-style="normal" font-weight="normal" text-decoration="none" x="200" y="30">UNREGISTERED</text><text fill="#eeeeee" stroke="none" font-family="Arial" font-size="24px" font-style="normal" font-weight="normal" text-decoration="none" x="200" y="60">UNREGISTERED</text><text fill="#eeeeee" stroke="none" font-family="Arial" font-size="24px" font-style="normal" font-weight="normal" text-decoration="none" x="200" y="90">UNREGISTERED</text><text fill="#eeeeee" stroke="none" font-family="Arial" font-size="24px" font-style="normal" font-weight="normal" text-decoration="none" x="200" y="120">UNREGISTERED</text><text fill="#eeeeee" stroke="none" font-family="Arial" font-size="24px" font-style="normal" font-weight="normal" text-decoration="none" x="200" y="150">UNREGISTERED</text><text fill="#eeeeee" stroke="none" font-family="Arial" font-size="24px" font-style="normal" font-weight="normal" text-decoration="none" x="200" y="180">UNREGISTERED</text><text fill="#eeeeee" stroke="none" font-family="Arial" font-size="24px" font-style="normal" font-weight="normal" text-decoration="none" x="200" y="210">UNREGISTERED</text><text fill="#eeeeee" stroke="none" font-family="Arial" font-size="24px" font-style="normal" font-weight="normal" text-decoration="none" x="200" y="240">UNREGISTERED</text><text fill="#eeeeee" stroke="none" font-family="Arial" font-size="24px" font-style="normal" font-weight="normal" text-decoration="none" x="200" y="270">UNREGISTERED</text><text fill="#eeeeee" stroke="none" font-family="Arial" font-size="24px" font-style="normal" font-weight="normal" text-decoration="none" x="200" y="300">UNREGISTERED</text><text fill="#eeeeee" stroke="none" font-family="Arial" font-size="24px" font-style="normal" font-weight="normal" text-decoration="none" x="400" y="0">UNREGISTERED</text><text fill="#eeeeee" stroke="none" font-family="Arial" font-size="24px" font-style="normal" font-weight="normal" text-decoration="none" x="400" y="30">UNREGISTERED</text><text fill="#eeeeee" stroke="none" font-family="Arial" font-size="24px" font-style="normal" font-weight="normal" text-decoration="none" x="400" y="60">UNREGISTERED</text><text fill="#eeeeee" stroke="none" font-family="Arial" font-size="24px" font-style="normal" font-weight="normal" text-decoration="none" x="400" y="90">UNREGISTERED</text><text fill="#eeeeee" stroke="none" font-family="Arial" font-size="24px" font-style="normal" font-weight="normal" text-decoration="none" x="400" y="120">UNREGISTERED</text><text fill="#eeeeee" stroke="none" font-family="Arial" font-size="24px" font-style="normal" font-weight="normal" text-decoration="none" x="400" y="150">UNREGISTERED</text><text fill="#eeeeee" stroke="none" font-family="Arial" font-size="24px" font-style="normal" font-weight="normal" text-decoration="none" x="400" y="180">UNREGISTERED</text><text fill="#eeeeee" stroke="none" font-family="Arial" font-size="24px" font-style="normal" font-weight="normal" text-decoration="none" x="400" y="210">UNREGISTERED</text><text fill="#eeeeee" stroke="none" font-family="Arial" font-size="24px" font-style="normal" font-weight="normal" text-decoration="none" x="400" y="240">UNREGISTERED</text><text fill="#eeeeee" stroke="none" font-family="Arial" font-size="24px" font-style="normal" font-weight="normal" text-decoration="none" x="400" y="270">UNREGISTERED</text><text fill="#eeeeee" stroke="none" font-family="Arial" font-size="24px" font-style="normal" font-weight="normal" text-decoration="none" x="400" y="300">UNREGISTERED</text><g transform="translate(-126,-182) scale(1,1)"><rect fill="#C0C0C0" stroke="none" x="279" y="199" width="98.22900390625" height="145" opacity="0.2"/></g><g transform="translate(-126,-182) scale(1,1)"><rect fill="#ffffff" stroke="none" x="272" y="192" width="98.22900390625" height="145"/></g><g transform="translate(-126,-182) scale(1,1)"><path fill="none" stroke="#000000" d="M 272 192 L 370.22900390625 192 L 370.22900390625 337 L 272 337 L 272 192 Z Z" stroke-miterlimit="10"/></g><g transform="translate(-126,-182) scale(1,1)"><path fill="none" stroke="#000000" d="M 272 217 L 370.22900390625 217" stroke-miterlimit="10"/></g><g transform="translate(-126,-182) scale(1,1)"><path fill="none" stroke="#000000" d="M 272 255 L 370.22900390625 255" stroke-miterlimit="10"/></g><g transform="translate(-126,-182) scale(1,1)"><g><path fill="none" stroke="none"/><text fill="#000000" stroke="none" font-family="Arial" font-size="13px" font-style="italic" font-weight="bold" text-decoration="none" x="292.569091796875" y="211.5">Operation</text></g></g><g transform="translate(-126,-182) scale(1,1)"><g><path fill="none" stroke="none"/><text fill="#000000" stroke="none" font-family="Arial" font-size="13px" font-style="normal" font-weight="normal" text-decoration="none" x="277" y="234.5">-numberA</text></g></g><g transform="translate(-126,-182) scale(1,1)"><g><path fill="none" stroke="none"/><text fill="#000000" stroke="none" font-family="Arial" font-size="13px" font-style="normal" font-weight="normal" text-decoration="none" x="277" y="249.5">-numberB</text></g></g><g transform="translate(-126,-182) scale(1,1)"><g><path fill="none" stroke="none"/><text fill="#000000" stroke="none" font-family="Arial" font-size="13px" font-style="normal" font-weight="normal" text-decoration="none" x="277" y="272.5">+setNumberA()</text></g></g><g transform="translate(-126,-182) scale(1,1)"><g><path fill="none" stroke="none"/><text fill="#000000" stroke="none" font-family="Arial" font-size="13px" font-style="normal" font-weight="normal" text-decoration="none" x="277" y="287.5">+setNumberB()</text></g></g><g transform="translate(-126,-182) scale(1,1)"><g><path fill="none" stroke="none"/><text fill="#000000" stroke="none" font-family="Arial" font-size="13px" font-style="normal" font-weight="normal" text-decoration="none" x="277" y="302.5">+getNumberA()</text></g></g><g transform="translate(-126,-182) scale(1,1)"><g><path fill="none" stroke="none"/><text fill="#000000" stroke="none" font-family="Arial" font-size="13px" font-style="normal" font-weight="normal" text-decoration="none" x="277" y="317.5">+getNumberB()</text></g></g><g transform="translate(-126,-182) scale(1,1)"><g><path fill="none" stroke="none"/><text fill="#000000" stroke="none" font-family="Arial" font-size="13px" font-style="italic" font-weight="normal" text-decoration="none" x="277" y="332.5">+getResult()</text></g></g><g transform="translate(-126,-182) scale(1,1)"><rect fill="#C0C0C0" stroke="none" x="143" y="446" width="95.66455078125" height="57" opacity="0.2"/></g><g transform="translate(-126,-182) scale(1,1)"><rect fill="#ffffff" stroke="none" x="136" y="439" width="95.66455078125" height="57"/></g><g transform="translate(-126,-182) scale(1,1)"><path fill="none" stroke="#000000" d="M 136 439 L 231.66455078125 439 L 231.66455078125 496 L 136 496 L 136 439 Z Z" stroke-miterlimit="10"/></g><g transform="translate(-126,-182) scale(1,1)"><path fill="none" stroke="#000000" d="M 136 464 L 231.66455078125 464" stroke-miterlimit="10"/></g><g transform="translate(-126,-182) scale(1,1)"><path fill="none" stroke="#000000" d="M 136 474 L 231.66455078125 474" stroke-miterlimit="10"/></g><g transform="translate(-126,-182) scale(1,1)"><g><path fill="none" stroke="none"/><text fill="#000000" stroke="none" font-family="Arial" font-size="13px" font-style="normal" font-weight="bold" text-decoration="none" x="143.721435546875" y="458.5">OperationAdd</text></g></g><g transform="translate(-126,-182) scale(1,1)"><g><path fill="none" stroke="none"/><text fill="#000000" stroke="none" font-family="Arial" font-size="13px" font-style="normal" font-weight="normal" text-decoration="none" x="141" y="491.5">+getResult()</text></g></g><g transform="translate(-126,-182) scale(1,1)"><path fill="none" stroke="#000000" d="M 203 438 L 271 338" stroke-miterlimit="10"/></g><g transform="translate(-126,-182) scale(1,1)"><path fill="#FFFFFF" stroke="none" d="M 266.532775753272 359.5416783823695 L 271 338 L 252.60892857974454 350.0734623043708"/></g><g transform="translate(-126,-182) scale(1,1)"><path fill="none" stroke="#000000" d="M 266.532775753272 359.5416783823695 L 271 338 L 252.60892857974454 350.0734623043708 L 266.532775753272 359.5416783823695" stroke-miterlimit="10"/></g><g transform="translate(-126,-182) scale(1,1)"><rect fill="#C0C0C0" stroke="none" x="256" y="446" width="94.947265625" height="57" opacity="0.2"/></g><g transform="translate(-126,-182) scale(1,1)"><rect fill="#ffffff" stroke="none" x="249" y="439" width="94.947265625" height="57"/></g><g transform="translate(-126,-182) scale(1,1)"><path fill="none" stroke="#000000" d="M 249 439 L 343.947265625 439 L 343.947265625 496 L 249 496 L 249 439 Z Z" stroke-miterlimit="10"/></g><g transform="translate(-126,-182) scale(1,1)"><path fill="none" stroke="#000000" d="M 249 464 L 343.947265625 464" stroke-miterlimit="10"/></g><g transform="translate(-126,-182) scale(1,1)"><path fill="none" stroke="#000000" d="M 249 474 L 343.947265625 474" stroke-miterlimit="10"/></g><g transform="translate(-126,-182) scale(1,1)"><g><path fill="none" stroke="none"/><text fill="#000000" stroke="none" font-family="Arial" font-size="13px" font-style="normal" font-weight="bold" text-decoration="none" x="256.36279296875" y="458.5">OperationSub</text></g></g><g transform="translate(-126,-182) scale(1,1)"><g><path fill="none" stroke="none"/><text fill="#000000" stroke="none" font-family="Arial" font-size="13px" font-style="normal" font-weight="normal" text-decoration="none" x="254" y="491.5">+getResult()</text></g></g><g transform="translate(-126,-182) scale(1,1)"><path fill="none" stroke="#000000" d="M 300 438 L 312 338" stroke-miterlimit="10"/></g><g transform="translate(-126,-182) scale(1,1)"><path fill="#FFFFFF" stroke="none" d="M 317.9373970863254 359.1836568098922 L 312 338 L 301.2192663617346 357.17748112294134"/></g><g transform="translate(-126,-182) scale(1,1)"><path fill="none" stroke="#000000" d="M 317.9373970863254 359.1836568098922 L 312 338 L 301.2192663617346 357.17748112294134 L 317.9373970863254 359.1836568098922" stroke-miterlimit="10"/></g><g transform="translate(-126,-182) scale(1,1)"><rect fill="#C0C0C0" stroke="none" x="368" y="446" width="92.7763671875" height="57" opacity="0.2"/></g><g transform="translate(-126,-182) scale(1,1)"><rect fill="#ffffff" stroke="none" x="361" y="439" width="92.7763671875" height="57"/></g><g transform="translate(-126,-182) scale(1,1)"><path fill="none" stroke="#000000" d="M 361 439 L 453.7763671875 439 L 453.7763671875 496 L 361 496 L 361 439 Z Z" stroke-miterlimit="10"/></g><g transform="translate(-126,-182) scale(1,1)"><path fill="none" stroke="#000000" d="M 361 464 L 453.7763671875 464" stroke-miterlimit="10"/></g><g transform="translate(-126,-182) scale(1,1)"><path fill="none" stroke="#000000" d="M 361 474 L 453.7763671875 474" stroke-miterlimit="10"/></g><g transform="translate(-126,-182) scale(1,1)"><g><path fill="none" stroke="none"/><text fill="#000000" stroke="none" font-family="Arial" font-size="13px" font-style="normal" font-weight="bold" text-decoration="none" x="368.369140625" y="458.5">OperationMul</text></g></g><g transform="translate(-126,-182) scale(1,1)"><g><path fill="none" stroke="none"/><text fill="#000000" stroke="none" font-family="Arial" font-size="13px" font-style="normal" font-weight="normal" text-decoration="none" x="366" y="491.5">+getResult()</text></g></g><g transform="translate(-126,-182) scale(1,1)"><path fill="none" stroke="#000000" d="M 395 438 L 352 338" stroke-miterlimit="10"/></g><g transform="translate(-126,-182) scale(1,1)"><path fill="#FFFFFF" stroke="none" d="M 367.7633856934264 353.34651984914757 L 352 338 L 352.29476866533463 359.998025171227"/></g><g transform="translate(-126,-182) scale(1,1)"><path fill="none" stroke="#000000" d="M 367.7633856934264 353.34651984914757 L 352 338 L 352.29476866533463 359.998025171227 L 367.7633856934264 353.34651984914757" stroke-miterlimit="10"/></g><g transform="translate(-126,-182) scale(1,1)"><rect fill="#C0C0C0" stroke="none" x="478" y="446" width="90.62451171875" height="57" opacity="0.2"/></g><g transform="translate(-126,-182) scale(1,1)"><rect fill="#ffffff" stroke="none" x="471" y="439" width="90.62451171875" height="57"/></g><g transform="translate(-126,-182) scale(1,1)"><path fill="none" stroke="#000000" d="M 471 439 L 561.62451171875 439 L 561.62451171875 496 L 471 496 L 471 439 Z Z" stroke-miterlimit="10"/></g><g transform="translate(-126,-182) scale(1,1)"><path fill="none" stroke="#000000" d="M 471 464 L 561.62451171875 464" stroke-miterlimit="10"/></g><g transform="translate(-126,-182) scale(1,1)"><path fill="none" stroke="#000000" d="M 471 474 L 561.62451171875 474" stroke-miterlimit="10"/></g><g transform="translate(-126,-182) scale(1,1)"><g><path fill="none" stroke="none"/><text fill="#000000" stroke="none" font-family="Arial" font-size="13px" font-style="normal" font-weight="bold" text-decoration="none" x="478.378662109375" y="458.5">OperationDiv</text></g></g><g transform="translate(-126,-182) scale(1,1)"><g><path fill="none" stroke="none"/><text fill="#000000" stroke="none" font-family="Arial" font-size="13px" font-style="normal" font-weight="normal" text-decoration="none" x="476" y="491.5">+getResult()</text></g></g><g transform="translate(-126,-182) scale(1,1)"><path fill="none" stroke="#000000" d="M 488 438 L 371 316" stroke-miterlimit="10"/></g><g transform="translate(-126,-182) scale(1,1)"><path fill="#FFFFFF" stroke="none" d="M 391.14481138376027 324.8423172479121 L 371 316 L 378.9920702477794 336.49699522258226"/></g><g transform="translate(-126,-182) scale(1,1)"><path fill="none" stroke="#000000" d="M 391.14481138376027 324.8423172479121 L 371 316 L 378.9920702477794 336.49699522258226 L 391.14481138376027 324.8423172479121" stroke-miterlimit="10"/></g></g></svg>